<svg width="18" height="18" viewBox="0 0 18 18" fill="none" xmlns="http://www.w3.org/2000/svg">
<path d="M15.5 4.06543C16.3622 4.28762 16.9998 5.06851 17 6V15C16.9998 16.0353 16.2124 16.8868 15.2041 16.9893L15 17H6L5.7959 16.9893C4.9558 16.9039 4.2711 16.2983 4.06543 15.5H15C15.2758 15.4997 15.4997 15.2758 15.5 15V4.06543ZM12 1C13.1046 1 14 1.89543 14 3V12C14 13.1046 13.1046 14 12 14H3C1.89543 14 1 13.1046 1 12V3C1 1.89543 1.89543 1 3 1H12ZM6.4707 8.91016L4.53027 6.96973L3.46973 8.03027L6.52832 11.0889L7.05762 10.502L11.5576 5.50195L10.4424 4.49805L6.4707 8.91016Z" fill="#444444"/>
</svg>
